<svg width="25" height="25" viewBox="0 0 25 25" fill="none" xmlns="http://www.w3.org/2000/svg">
<rect width="25" height="25" fill="#F5F5F5"/>
<g id="Impact design" clip-path="url(#clip0_0_1)">
<rect width="360" height="1038" transform="translate(-90 -772)" fill="#FBFBFB" fill-opacity="0.48"/>
<g id="Group 1000001567">
<rect id="Rectangle 4654" x="-76" y="-701" width="332" height="900" rx="10" fill="white"/>
<g id="Group 1000001434">
<g id="Group 1000001432">
<g id="ic-donation-raised (1) 1" clip-path="url(#clip1_0_1)">
<g id="Page-1">
<g id="All-Icons">
<g id="ic-donation-raised">
<g id="increased-revenue">
<path id="Shape" d="M6.48956 16.8047H3.54415C3.00185 16.8047 2.5625 17.2449 2.5625 17.7877V22.2097C2.56296 22.7534 3.00277 23.1927 3.54415 23.1927H6.48956C7.03186 23.1927 7.47121 22.7534 7.47121 22.2097V17.7877C7.47167 17.2449 7.03232 16.8047 6.48956 16.8047Z" fill="#7955B4" fill-opacity="0.2"/>
<path id="Shape_2" d="M14.1019 13.3662H11.1565C10.6142 13.3662 10.1748 13.8064 10.1748 14.3492V22.2111C10.1748 22.7548 10.6146 23.1941 11.1565 23.1941H14.1019C14.6442 23.1941 15.084 22.7548 15.084 22.2111V14.3479C15.084 13.8064 14.6446 13.3662 14.1019 13.3662Z" fill="#7955B4" fill-opacity="0.2"/>
<path id="Shape_3" d="M21.7181 9.49316H18.7731C18.2304 9.49316 17.791 9.93338 17.791 10.4757V22.2683C17.791 22.812 18.2308 23.2513 18.7731 23.2513H21.7181C22.2608 23.2513 22.7002 22.812 22.7002 22.2683V10.4762C22.7007 9.93338 22.2608 9.49316 21.7181 9.49316Z" fill="#7955B4" fill-opacity="0.2"/>
<path id="Shape_4" d="M15.8284 6.62002L13.3903 6.10988C13.2037 6.07124 13.0116 6.14346 12.8972 6.29572C12.7828 6.44844 12.7671 6.65314 12.8568 6.82196L13.3972 7.83902L2.58711 13.4202C2.34629 13.5449 2.25162 13.8416 2.37616 14.0817C2.46348 14.2505 2.6349 14.3476 2.81276 14.3476C2.88859 14.3476 2.96534 14.3305 3.03749 14.2928L13.8577 8.70612L14.3536 9.639C14.4391 9.8 14.6059 9.89982 14.787 9.89982C14.7952 9.89982 14.8031 9.89936 14.8118 9.8989C15.0021 9.88924 15.1698 9.77056 15.2415 9.59392L16.1832 7.28564C16.2383 7.1504 16.231 6.99814 16.162 6.86934C16.0926 6.74192 15.9708 6.65038 15.8284 6.62002Z" fill="#7955B4"/>
</g>
<g id="increased-revenue_2">
<path id="Shape_5" d="M6.48878 16.5059C7.19729 16.5059 7.77103 17.0805 7.77043 17.7889V22.2109C7.77043 22.92 7.19706 23.4939 6.48878 23.4939H3.54337C2.83592 23.4939 2.26232 22.9199 2.26172 22.2109V17.7889C2.26172 17.0804 2.83537 16.5059 3.54337 16.5059H6.48878ZM6.48878 17.1059H3.54337C3.16695 17.1059 2.86172 17.4116 2.86172 17.7889L2.86172 22.2106C2.86204 22.5884 3.16729 22.8939 3.54337 22.8939H6.48878C6.86556 22.8939 7.17043 22.5887 7.17043 22.2109L7.17043 17.7886C7.17075 17.4115 6.86562 17.1059 6.48878 17.1059Z" fill="#7955B4"/>
<path id="Shape_6" d="M14.1011 13.0674C14.8092 13.0674 15.3832 13.6416 15.3832 14.349V22.2123C15.3832 22.9213 14.8094 23.4953 14.1011 23.4953H11.1557C10.4477 23.4953 9.87402 22.9212 9.87402 22.2123V14.3504C9.87402 13.6419 10.4477 13.0674 11.1557 13.0674H14.1011ZM14.1011 13.6674H11.1557C10.7793 13.6674 10.474 13.9731 10.474 14.3504V22.2123C10.474 22.5899 10.7792 22.8953 11.1557 22.8953H14.1011C14.478 22.8953 14.7832 22.59 14.7832 22.2123V14.349C14.7832 13.9729 14.4778 13.6674 14.1011 13.6674Z" fill="#7955B4"/>
<path id="Shape_7" d="M21.7173 9.19434C22.4258 9.19434 23 9.76903 22.9994 10.4774V22.2695C22.9994 22.9787 22.4259 23.5525 21.7173 23.5525H18.7723C18.064 23.5525 17.4902 22.9785 17.4902 22.2695V10.4769C17.4902 9.7687 18.0641 9.19434 18.7723 9.19434H21.7173ZM21.7173 9.79434H18.7723C18.3956 9.79434 18.0902 10.0999 18.0902 10.4769V22.2695C18.0902 22.6472 18.3954 22.9525 18.7723 22.9525H21.7173C22.0945 22.9525 22.3994 22.6474 22.3994 22.2695V10.4771C22.3997 10.1001 22.0943 9.79434 21.7173 9.79434Z" fill="#7955B4"/>
</g>
<g id="love-rounded">
<path id="Shape-fill" opacity="0.2" d="M23.0696 4.05297C23.0696 3.0824 22.2801 2.29297 21.3097 2.29297C20.6279 2.29297 20.0015 2.69217 19.7135 3.31025C19.6762 3.3904 19.7108 3.48562 19.7909 3.52289C19.8709 3.56033 19.9661 3.52546 20.0036 3.44545C20.2393 2.93969 19.8215 2.73153 19.8568 2.65057C19.8924 2.56961 19.8554 2.47537 19.7744 2.43986C19.5517 2.34241 19.3144 2.29297 19.0696 2.29297C18.099 2.29297 17.3096 3.0824 17.3096 4.05297C17.3096 5.08609 18.292 6.72017 20.113 7.71345C20.1368 7.72641 20.1633 7.73297 20.1896 7.73297C20.216 7.73297 20.2423 7.72641 20.2663 7.71345C22.0871 6.72015 23.0696 5.08624 23.0696 4.05297Z" fill="#F16577"/>
<path id="Shape-outline" d="M23.0696 4.05297C23.0696 3.0824 22.2801 2.29297 21.3097 2.29297C20.6279 2.29297 20.0015 2.69217 19.7135 3.31025C19.6762 3.3904 19.7108 3.48562 19.7909 3.52289C19.8709 3.56033 19.9661 3.52546 20.0036 3.44545C20.2393 2.93969 20.7519 2.61297 21.3097 2.61297C22.1036 2.61297 22.7496 3.25889 22.7496 4.05297C22.7496 4.99233 21.7938 6.48497 20.1896 7.38992C18.5853 6.48495 17.6296 4.99233 17.6296 4.05297C17.6296 3.25889 18.2755 2.61297 19.0696 2.61297C19.2701 2.61297 19.8131 2.82783 19.9952 2.90752C20.0762 2.94288 20.1706 2.90608 20.2059 2.82511C20.2414 2.74415 20.2045 2.64991 20.1235 2.6144C19.9008 2.51696 19.3144 2.29297 19.0696 2.29297C18.099 2.29297 17.3096 3.0824 17.3096 4.05297C17.3096 5.08609 18.292 6.72017 20.113 7.71345C20.1368 7.72641 20.1633 7.73297 20.1896 7.73297C20.216 7.73297 20.2423 7.72641 20.2663 7.71345C22.0871 6.72015 23.0696 5.08624 23.0696 4.05297Z" fill="#F16577"/>
</g>
</g>
</g>
</g>
</g>
</g>
</g>
</g>
</g>
<defs>
<clipPath id="clip0_0_1">
<rect width="360" height="1038" fill="white" transform="translate(-90 -772)"/>
</clipPath>
<clipPath id="clip1_0_1">
<rect width="24" height="24" fill="white" transform="translate(0.75 0.613281)"/>
</clipPath>
</defs>
</svg>
