<svg width="25" height="25" viewBox="0 0 25 25" fill="none" xmlns="http://www.w3.org/2000/svg">
<g clip-path="url(#clip0_1_713)">
<path opacity="0.2" d="M12.42 2.5332C15.0912 2.5332 17.6021 3.5736 19.4904 5.46264C21.3799 7.35096 22.4201 9.86232 22.4201 12.533C22.4201 15.2042 21.3799 17.7154 19.4911 19.6034C17.6023 21.4922 15.0912 22.5331 12.42 22.5331C9.7488 22.5331 7.23768 21.493 5.3496 19.6039C3.46008 17.7151 2.41992 15.2042 2.41992 12.5335C2.41992 9.86232 3.46032 7.35096 5.34936 5.46312C7.23768 3.5736 9.74928 2.5332 12.42 2.5332ZM15.6199 11.5968C15.6199 10.5691 14.7974 9.7332 13.7868 9.7332C13.0764 9.7332 12.4241 10.1556 12.1241 10.8103C12.0852 10.8953 12.1212 10.9961 12.2047 11.0354C12.288 11.075 12.3871 11.0378 12.4262 10.9534C12.6718 10.4182 12.2366 10.1974 12.2734 10.1119C12.3103 10.026 12.2719 9.9264 12.1874 9.88872C11.9556 9.78552 11.7084 9.7332 11.453 9.7332C10.4431 9.7332 9.61992 10.5691 9.61992 11.5968C9.61992 12.6907 10.6433 14.4209 12.5402 15.4728C12.565 15.4862 12.5926 15.4932 12.6199 15.4932C12.6475 15.4932 12.6751 15.486 12.6998 15.4726C14.5966 14.4209 15.6199 12.6912 15.6199 11.5968Z" fill="#7955B4"/>
<path d="M12.5 22.4533C17.9345 22.4533 22.34 18.0477 22.34 12.6133C22.34 7.17877 17.9345 2.77325 12.5 2.77325C7.06555 2.77325 2.66003 7.17877 2.66003 12.6133C2.66003 18.0477 7.06555 22.4533 12.5 22.4533Z" stroke="#7955B4" stroke-width="2"/>
<path d="M3.62 12.3732H4.82V12.8532H3.62V12.3732ZM19.94 12.3732H21.14V12.8532H19.94M12.26 20.0532H12.74V21.2532H12.26M12.26 3.73322H12.74V4.93322H12.26V3.73322Z" fill="#7955B4"/>
<path opacity="0.2" d="M15.62 11.5969C15.62 10.5692 14.7975 9.73328 13.7869 9.73328C13.0765 9.73328 12.4242 10.1557 12.1242 10.8104C12.0853 10.8954 12.1213 10.9962 12.2048 11.0355C12.2881 11.0751 12.3872 11.0379 12.4263 10.9534C12.6718 10.4182 12.2367 10.1974 12.2734 10.112C12.3104 10.0261 12.272 9.92648 12.1875 9.8888C11.9557 9.7856 11.7085 9.73328 11.4531 9.73328C10.4432 9.73328 9.62 10.5692 9.62 11.5969C9.62 12.6908 10.6434 14.421 12.5403 15.4729C12.565 15.4863 12.5926 15.4933 12.62 15.4933C12.6476 15.4933 12.6752 15.4861 12.6999 15.4726C14.5966 14.421 15.62 12.6913 15.62 11.5969Z" fill="#F16577"/>
<path d="M15.6198 11.5969C15.6198 10.5692 14.7973 9.73328 13.7866 9.73328C13.0762 9.73328 12.4239 10.1557 12.1239 10.8104C12.085 10.8954 12.121 10.9962 12.2046 11.0355C12.2878 11.0751 12.387 11.0379 12.4261 10.9534C12.6716 10.4182 13.2056 10.0722 13.7869 10.0722C14.6137 10.0722 15.2864 10.7562 15.2864 11.5969C15.2864 12.5914 14.2911 14.1721 12.62 15.1302C10.9489 14.1718 9.95359 12.5914 9.95359 11.5969C9.95359 10.7559 10.6261 10.0722 11.4536 10.0722C11.6624 10.0722 12.2278 10.2997 12.4174 10.3842C12.5019 10.4214 12.6003 10.3825 12.637 10.2968C12.6742 10.2111 12.6358 10.1113 12.5514 10.0736C12.3195 9.9704 11.709 9.73328 11.4536 9.73328C10.4425 9.73328 9.62 10.5692 9.62 11.5969C9.62 12.6908 10.6434 14.421 12.5403 15.4729C12.565 15.4863 12.5926 15.4933 12.62 15.4933C12.6476 15.4933 12.6752 15.4861 12.6999 15.4726C14.5964 14.421 15.6198 12.6913 15.6198 11.5969Z" fill="#F16577"/>
</g>
<defs>
<clipPath id="clip0_1_713">
<rect width="24" height="24" fill="white" transform="translate(0.5 0.613281)"/>
</clipPath>
</defs>
</svg>
