<svg width="25" height="25" viewBox="0 0 25 25" fill="none" xmlns="http://www.w3.org/2000/svg">
<rect width="25" height="25" fill="#F5F5F5"/>
<g id="Impact design" clip-path="url(#clip0_0_1)">
<rect width="360" height="1038" transform="translate(-91 -684)" fill="#FBFBFB" fill-opacity="0.48"/>
<g id="Group 1000001567">
<rect id="Rectangle 4654" x="-77" y="-613" width="332" height="900" rx="10" fill="white"/>
<g id="Group 1000001434">
<g id="Group 1000001430">
<g id="ic-home (1) 1" clip-path="url(#clip1_0_1)">
<g id="Group">
<path id="Vector" opacity="0.2" d="M23.0742 11.8748C22.8635 12.1336 22.5618 12.2668 22.2582 12.2668C22.1622 12.2668 22.0662 12.2428 21.9726 12.2152V21.6563C21.9726 22.2668 21.4945 22.7617 20.9051 22.7617H4.41947C3.82955 22.7617 3.35195 22.2666 3.35195 21.656V12.2238C2.96267 12.3354 2.52947 12.2149 2.25203 11.8748C1.87187 11.4088 1.92803 10.7113 2.37827 10.3172L11.9747 1.91627C12.3719 1.56827 12.9548 1.56827 13.3523 1.91627L22.9482 10.3172C23.3984 10.7113 23.4546 11.4088 23.0742 11.8748ZM17.8098 13.3134C17.8098 11.4935 16.3295 10.0134 14.5098 10.0134C13.2315 10.0134 12.057 10.7622 11.517 11.9207C11.4474 12.0712 11.5122 12.2495 11.6624 12.3196C11.8127 12.3892 11.9912 12.3244 12.0613 12.1741C12.5029 11.2261 11.7198 10.8354 11.7863 10.6837C11.8527 10.5318 11.7834 10.3549 11.6317 10.2887C11.2141 10.1058 10.7691 10.0132 10.31 10.0132C8.49035 10.0132 7.01003 11.4932 7.01003 13.3132C7.01003 15.25 8.85203 18.3143 12.2665 20.1767C12.3111 20.2007 12.3606 20.2132 12.4105 20.2132C12.4597 20.2132 12.5089 20.2012 12.5538 20.1767C15.968 18.3143 17.8098 15.2507 17.8098 13.3134Z" fill="#7955B4"/>
<g id="Group_2">
<path id="Vector_2" d="M1.61741 12.1031C1.11461 11.5127 1.18925 10.6288 1.78421 10.1296L11.4471 2.01834C11.9727 1.57722 12.7426 1.57722 13.268 2.01834L22.9304 10.1296C23.5256 10.6288 23.6 11.5125 23.0972 12.1034C22.8363 12.4106 22.4616 12.5863 22.0666 12.5992V21.3328C22.0666 22.1063 21.4354 22.7332 20.6564 22.7332C20.137 22.7332 19.6671 22.7241 19.2461 22.7049L12.3581 22.6823L5.46653 22.7071C5.04557 22.7251 4.57565 22.7335 4.05629 22.7335C3.27701 22.7335 2.64581 22.1071 2.64581 21.3333V12.5971C2.25629 12.5843 1.88021 12.412 1.61741 12.1031ZM22.5843 11.6735C22.8478 11.3635 22.8087 10.9007 22.4969 10.6391L12.8345 2.52714C12.5595 2.29602 12.1558 2.29602 11.8805 2.52714L2.21789 10.6391C1.90589 10.9007 1.86749 11.3635 2.13053 11.6731C2.31773 11.8929 2.61485 11.9803 2.89229 11.9039L3.31757 11.7871V21.3326C3.31757 21.7382 3.64829 22.0665 4.05677 22.0665C4.32869 22.0665 4.57517 22.0967 4.79549 22.157L12.3579 22.049L19.9179 22.1553C20.1387 22.0963 20.3847 22.0665 20.6571 22.0665C21.0651 22.0665 21.3958 21.7382 21.3958 21.3328V11.7772L21.8223 11.896C21.9178 11.9224 21.9735 11.9332 22.0198 11.9332C22.2365 11.9332 22.4422 11.8403 22.5848 11.6733L22.5843 11.6735Z" fill="#7955B4"/>
<g id="Group_3">
<path id="Vector_3" opacity="0.2" d="M17.8098 13.312C17.8098 11.492 16.3294 10.012 14.5098 10.012C13.2315 10.012 12.057 10.7608 11.517 11.9192C11.4474 12.0697 11.5122 12.248 11.6624 12.3181C11.8127 12.3877 11.9912 12.3229 12.0613 12.1727C12.5029 11.2247 11.7198 10.834 11.7863 10.6823C11.8527 10.5304 11.7834 10.3535 11.6317 10.2872C11.2141 10.1044 10.7691 10.0117 10.31 10.0117C8.49033 10.0117 7.01001 11.4918 7.01001 13.3117C7.01001 15.2485 8.85201 18.3128 12.2665 20.1752C12.3111 20.1992 12.3606 20.2117 12.4105 20.2117C12.4597 20.2117 12.5089 20.1997 12.5538 20.1752C15.968 18.3128 17.8098 15.2492 17.8098 13.312Z" fill="#F16577"/>
<path id="Vector_4" d="M17.8098 13.312C17.8098 11.492 16.3294 10.012 14.5098 10.012C13.2315 10.012 12.057 10.7608 11.517 11.9192C11.4474 12.0697 11.5122 12.248 11.6624 12.3181C11.8126 12.3877 11.9912 12.3229 12.0613 12.1727C12.5029 11.2247 13.4643 10.6117 14.5102 10.6117C15.999 10.6117 17.2102 11.8228 17.2102 13.3117C17.2102 15.0733 15.4179 17.8717 12.4102 19.5685C9.40185 17.8717 7.61025 15.0733 7.61025 13.3117C7.61025 11.8228 8.82105 10.6117 10.3102 10.6117C10.6861 10.6117 11.7042 11.0149 12.0454 11.1637C12.1974 11.2302 12.3742 11.1613 12.4407 11.0094C12.5072 10.8577 12.4383 10.6811 12.2862 10.6144C11.8686 10.432 10.7689 10.012 10.3098 10.012C8.49009 10.012 7.00977 11.492 7.00977 13.312C7.00977 15.2488 8.85177 18.3131 12.2662 20.1755C12.3109 20.1995 12.3603 20.212 12.4102 20.212C12.4594 20.212 12.5086 20.2 12.5535 20.1755C15.9678 18.3131 17.8098 15.2492 17.8098 13.312Z" fill="#F16577"/>
</g>
</g>
</g>
</g>
</g>
</g>
</g>
</g>
<defs>
<clipPath id="clip0_0_1">
<rect width="360" height="1038" fill="white" transform="translate(-91 -684)"/>
</clipPath>
<clipPath id="clip1_0_1">
<rect width="24" height="24" fill="white" transform="translate(0.5 0.113281)"/>
</clipPath>
</defs>
</svg>
