<svg width="25" height="25" viewBox="0 0 25 25" fill="none" xmlns="http://www.w3.org/2000/svg">
<rect width="25" height="25" fill="#F5F5F5"/>
<g id="Impact design" clip-path="url(#clip0_0_1)">
<rect width="360" height="1038" transform="translate(-252 -682)" fill="#FBFBFB" fill-opacity="0.48"/>
<g id="Group 1000001567">
<rect id="Rectangle 4654" x="-238" y="-611" width="332" height="900" rx="10" fill="white"/>
<g id="Group 1000001434">
<g id="Group 1000001431">
<g id="ic-volunteering (1) 1" clip-path="url(#clip1_0_1)">
<g id="Group">
<g id="Group_2">
<path id="Vector" d="M14.6384 6.3759L14.4952 6.28638L14.4976 5.63742C14.5259 3.80142 16.0216 2.3247 17.8595 2.32422C19.7178 2.32422 21.2238 3.83022 21.2238 5.68854C21.2238 7.54614 19.7178 9.05238 17.8597 9.05238C17.3648 9.05238 16.8836 8.94246 16.438 8.73438L15.8044 8.66238L15.7866 8.49342C15.4866 7.45422 15.3635 7.18206 14.6389 6.37614L14.6384 6.3759ZM16.8407 8.2551C17.1647 8.3847 17.5079 8.45238 17.8595 8.45238C19.3864 8.45238 20.6238 7.21494 20.6238 5.68854C20.6238 4.16166 19.3864 2.92422 17.8597 2.92422C16.4044 2.9247 15.2101 4.05222 15.1052 5.48502C15.1052 6.85062 15.4544 7.35798 16.8412 8.25534L16.8407 8.2551ZM12.7904 12.2163C10.9324 12.2163 9.42565 10.7101 9.42565 8.85222C9.42565 6.99462 10.9324 5.48814 12.7904 5.48814C14.648 5.48814 16.1545 6.99414 16.1545 8.85198C16.1545 10.7101 14.6485 12.2163 12.7904 12.2163ZM12.7904 11.6163C14.3168 11.6163 15.5545 10.3786 15.5545 8.85198C15.5545 7.32558 14.3168 6.08814 12.7902 6.08814C11.2633 6.08814 10.0254 7.32582 10.0254 8.85222C10.0254 10.3786 11.2636 11.6163 12.7904 11.6163ZM23.3596 16.0928L22.761 16.0688L22.7826 18.2288L23.1666 18.2269L23.3596 16.0928ZM23.14 18.5228L22.9907 18.5979C22.9132 18.6368 22.7994 18.6884 22.6422 18.7508C22.3998 18.8468 22.119 18.9428 21.8015 19.0333C20.9183 19.2843 19.8997 19.4513 18.7554 19.4933L17.7244 19.5046V16.0534C17.7244 14.1166 16.4404 12.4246 14.6092 11.8798L14.1148 11.7327L14.4868 11.3751C15.146 10.7429 15.5348 9.88086 15.56 8.9535L15.5677 8.66166H19.16C21.4885 8.66166 23.3828 10.5557 23.3828 12.8847V18.2254L23.1668 18.2266L23.14 18.5228ZM22.7829 12.8852C22.7829 10.8877 21.1571 9.26214 19.1598 9.26214H15.9008C15.8207 10.0777 14.7788 11.3189 14.2648 11.9405C16.1087 12.6869 18.0836 14.0101 18.0836 16.0537V18.8789C19.0523 18.8223 20.8789 18.6716 21.6366 18.4565C22.0463 18.3399 22.3566 18.2261 22.5726 18.1311C22.6285 18.1066 22.6782 18.0831 22.7214 18.0615L22.8558 18.3296L22.5572 18.3027L22.762 16.0388L23.3603 16.0628L23.3824 18.2228L22.7824 18.2259V12.8847L22.7829 12.8852ZM7.41325 9.05334C5.55565 9.05334 4.04941 7.54734 4.04941 5.68974C4.04941 3.83118 5.55493 2.32494 7.41325 2.32494C9.27085 2.32494 10.7771 3.83142 10.7771 5.68974C10.7771 5.73054 10.7754 5.76414 10.7713 5.82414L10.768 5.8779L10.5793 6.36198C9.87493 6.90966 9.47533 7.92006 9.33949 8.8059L9.31885 8.94126L8.72293 9.01422C8.01973 9.05358 8.05381 9.05334 7.41325 9.05334ZM10.1776 5.6895C10.1776 4.16262 8.93989 2.9247 7.41373 2.9247C5.88685 2.9247 4.64965 4.16238 4.64965 5.6895C4.64965 7.21542 5.88685 8.45286 7.41349 8.45286C7.89493 8.45286 8.35837 8.32758 8.77093 8.09358C9.55621 7.52478 10.1046 6.8355 10.1773 5.7111L10.1776 5.6895ZM11.0934 11.3751L11.4654 11.7327L10.971 11.8791C9.13909 12.4246 7.85581 14.1164 7.85533 16.0532V19.2514L6.81781 19.2329C5.38885 19.1497 3.89365 18.8787 2.32645 18.3893L1.89853 18.2545L1.89781 18.0353L1.88965 16.0649V12.8847C1.88965 10.5557 3.78397 8.66166 6.11293 8.66166H8.71285C8.78413 8.66166 8.85205 8.66478 8.94565 8.67126L9.00445 8.67558C9.01045 8.67606 9.34645 8.68278 10.0124 8.6967L10.0206 8.9667C10.0494 9.8895 10.4375 10.747 11.0929 11.3753L11.0934 11.3751ZM9.91909 9.26166H6.11293C4.11541 9.26166 2.48965 10.8872 2.48965 12.8847V16.0637L2.49685 17.8138C3.90973 18.2549 6.21085 18.5122 7.49509 18.6123V16.0532C7.49557 14.0093 9.47029 12.6865 11.3144 11.9403C10.8008 11.3192 9.99925 10.0772 9.91885 9.2619L9.91909 9.26166Z" fill="#7955B4"/>
<path id="Vector_2" d="M18.2898 19.2529L17.6908 19.2313L17.7124 21.6313L18.0954 21.6297L18.2898 19.2529ZM18.0714 21.9234L17.9221 21.9995C17.8405 22.0403 17.7073 22.1003 17.5295 22.1699C17.2554 22.2772 16.9376 22.3821 16.5776 22.4785C15.5761 22.7473 14.4224 22.9065 13.1281 22.9065C11.4378 22.9065 9.62652 22.6329 7.70412 22.0321L7.30812 21.9083L7.27044 21.676L7.2666 21.628V16.0477C7.2666 13.7188 9.16092 11.8242 11.4901 11.8242H14.09C16.4192 11.8242 18.3136 13.719 18.3126 16.0477V21.6277L18.0952 21.6292L18.0712 21.9229L18.0714 21.9234ZM17.7126 16.0482C17.7131 14.0507 16.0878 12.4247 14.0898 12.4247H11.4901C9.49236 12.4247 7.8666 14.0505 7.8666 16.0482V21.6282H7.5666L7.86276 21.5802L7.87092 21.6299L7.57476 21.6779L7.66428 21.3913L7.8834 21.4597C9.74724 22.0425 11.4985 22.3069 13.1284 22.3069C14.3692 22.3069 15.4708 22.1543 16.4224 21.8989C16.7608 21.8085 17.0576 21.7105 17.3116 21.6114C17.3843 21.5826 17.4479 21.5567 17.5016 21.5334C17.5652 21.5058 17.6152 21.4823 17.65 21.4648L17.786 21.7324L17.487 21.7079L17.6915 19.2047L18.2905 19.2263L18.3121 21.6263L17.7121 21.6287V16.0487L17.7126 16.0482Z" fill="#7955B4"/>
</g>
<g id="Group_3">
<path id="Vector_3" fill-rule="evenodd" clip-rule="evenodd" d="M14.0901 12.124C16.2534 12.124 18.0136 13.8842 18.0126 16.0475V21.6275L17.9906 19.2275L17.7858 21.7315C17.6826 21.7838 16.0115 22.606 13.1279 22.606C11.6519 22.606 9.85817 22.3905 7.79345 21.7456L7.57457 21.677L7.56641 21.6266V16.0478C7.56641 13.8844 9.32633 12.1243 11.4899 12.1243H14.0898L14.0901 12.124ZM15.8697 16.3663C15.8697 15.3549 15.0472 14.5327 14.0366 14.5327C13.3262 14.5327 12.6738 14.9486 12.3738 15.5923C12.335 15.6758 12.371 15.7747 12.4545 15.8138C12.5378 15.8529 12.6369 15.8162 12.676 15.7331C12.9215 15.2063 12.4864 14.9891 12.5231 14.9051C12.5601 14.8211 12.5217 14.7227 12.4372 14.6858C12.2054 14.5843 11.9582 14.5327 11.7028 14.5327C10.6929 14.5327 9.86969 15.3549 9.86969 16.3663C9.86969 17.4422 10.893 19.1443 12.79 20.1789C12.8147 20.1926 12.8423 20.1993 12.8697 20.1993C12.8973 20.1993 12.9249 20.1928 12.9496 20.1791C14.8463 19.1445 15.8697 17.4424 15.8697 16.3663Z" fill="#7955B4" fill-opacity="0.2"/>
<path id="Vector_4" d="M14.5574 5.55096C15.0527 6.94824 15.605 7.59336 16.3238 8.37144C16.7181 8.55552 17.1554 8.66136 17.6191 8.66136C19.3118 8.66136 20.6834 7.28952 20.6834 5.59752C20.6831 3.90504 19.3115 2.5332 17.6188 2.5332C15.9427 2.53368 14.5828 3.88104 14.5574 5.55096ZM12.55 11.825C14.242 11.825 15.6141 10.453 15.6141 8.76072C15.6141 7.06872 14.242 5.69688 12.5498 5.69688C10.8578 5.69688 9.48498 7.06872 9.48498 8.76096C9.48498 10.453 10.8578 11.8248 12.5498 11.8248L12.55 11.825ZM18.9196 8.87064H15.8589C15.8311 9.90264 15.1504 11.0724 14.4535 11.741C16.2487 12.7716 17.8691 13.9862 18.2635 15.9622L18.0235 19.1021C20.5708 19.0085 22.5187 18.2866 22.6156 18.2381L22.8206 15.9744L22.8422 18.1344V12.7937C22.8422 10.6306 21.0823 8.8704 18.9194 8.8704L18.9196 8.87064ZM7.17306 8.66184C7.77258 8.66184 8.33034 8.48664 8.80266 8.18904C9.71706 7.72344 10.2283 6.9564 10.2283 5.77032C10.2314 5.71272 10.2369 5.65608 10.2369 5.59824C10.2369 3.90624 8.86482 2.53416 7.17306 2.53416C5.48034 2.53392 4.10922 3.906 4.10922 5.598C4.10922 7.29 5.48034 8.66184 7.17306 8.66184ZM11.3649 11.501C10.6713 10.8358 9.9921 9.91104 9.96018 8.88504C9.86418 8.87784 8.56962 8.87064 8.47218 8.87064H5.8725C3.70914 8.8704 1.94922 10.6303 1.94922 12.7932V15.9732L1.95738 17.9424L2.17626 18.0115C3.83226 18.5285 6.27066 18.7668 7.55466 18.8419V15.9619C7.55514 13.8554 9.63258 12.6511 11.3649 11.5003V11.501Z" fill="#7955B4" fill-opacity="0.2"/>
</g>
<g id="Group_4">
<path id="Vector_5" opacity="0.2" d="M15.8701 16.3678C15.8701 15.3564 15.0476 14.5342 14.037 14.5342C13.3266 14.5342 12.6743 14.9501 12.3743 15.5938C12.3354 15.6773 12.3714 15.7762 12.4549 15.8153C12.5382 15.8544 12.6373 15.8177 12.6764 15.7347C12.922 15.2079 12.4868 14.9907 12.5236 14.9067C12.5605 14.8227 12.5221 14.7243 12.4376 14.6873C12.2058 14.5858 11.9586 14.5342 11.7032 14.5342C10.6933 14.5342 9.87012 15.3564 9.87012 16.3678C9.87012 17.4437 10.8935 19.1458 12.7904 20.1804C12.8152 20.1941 12.8428 20.2008 12.8701 20.2008C12.8977 20.2008 12.9253 20.1943 12.95 20.1807C14.8468 19.146 15.8701 17.4439 15.8701 16.3678Z" fill="#F16577"/>
<path id="Vector_6" d="M15.8699 16.3673C15.8699 15.3559 15.0474 14.5337 14.0368 14.5337C13.3264 14.5337 12.674 14.9496 12.374 15.5933C12.3352 15.6768 12.3712 15.7757 12.4547 15.8148C12.538 15.8539 12.6371 15.8172 12.6762 15.7342C12.9217 15.2074 13.4557 14.867 14.037 14.867C14.8638 14.867 15.5365 15.5395 15.5365 16.367C15.5365 17.3453 14.5412 18.9 12.8701 19.8427C11.199 18.9 10.2037 17.3453 10.2037 16.3668C10.2037 15.5393 10.8762 14.8668 11.7037 14.8668C11.9125 14.8668 12.478 15.09 12.6676 15.1733C12.752 15.2102 12.8504 15.1718 12.8872 15.0876C12.9244 15.0031 12.886 14.9052 12.8015 14.868C12.5696 14.7665 11.9591 14.5332 11.7037 14.5332C10.6926 14.5332 9.87012 15.3554 9.87012 16.3668C9.87012 17.4427 10.8935 19.1448 12.7904 20.1794C12.8152 20.1931 12.8428 20.1998 12.8701 20.1998C12.8977 20.1998 12.9253 20.1934 12.95 20.1797C14.8465 19.1455 15.8699 17.4434 15.8699 16.3673Z" fill="#F16577"/>
</g>
</g>
</g>
</g>
</g>
</g>
</g>
<defs>
<clipPath id="clip0_0_1">
<rect width="360" height="1038" fill="white" transform="translate(-252 -682)"/>
</clipPath>
<clipPath id="clip1_0_1">
<rect width="24" height="24" fill="white" transform="translate(0.75 0.613281)"/>
</clipPath>
</defs>
</svg>
