<svg width="20" height="18" viewBox="0 0 20 18" fill="none" xmlns="http://www.w3.org/2000/svg">
<path d="M10.7489 17.0473C10.637 16.9358 10.5483 16.8034 10.4877 16.6576C10.4272 16.5117 10.396 16.3554 10.396 16.1975C10.396 16.0396 10.4272 15.8833 10.4877 15.7375C10.5483 15.5916 10.637 15.4592 10.7489 15.3478L15.8969 10.2003L1.19976 10.2003C0.881565 10.2003 0.576402 10.0739 0.351402 9.84894C0.126403 9.62396 -3.81108e-07 9.31883 -3.672e-07 9.00066C-3.53293e-07 8.6825 0.126403 8.37737 0.351402 8.15239C0.576402 7.92741 0.881565 7.80102 1.19976 7.80102L15.8969 7.80102L10.7489 2.65156C10.5235 2.4262 10.3969 2.12054 10.3969 1.80182C10.3969 1.4831 10.5235 1.17744 10.7489 0.952074C10.9743 0.726707 11.28 0.600097 11.5987 0.600097C11.9175 0.600097 12.2232 0.726707 12.4485 0.952074L19.6471 8.14992C19.759 8.26137 19.8477 8.3938 19.9083 8.53962C19.9688 8.68544 20 8.84177 20 8.99966C20 9.15755 19.9688 9.31389 19.9083 9.45971C19.8477 9.60553 19.759 9.73796 19.6471 9.84941L12.4485 17.0473C12.3371 17.1591 12.2046 17.2478 12.0588 17.3084C11.913 17.3689 11.7566 17.4001 11.5987 17.4001C11.4408 17.4001 11.2845 17.3689 11.1386 17.3084C10.9928 17.2478 10.8603 17.1591 10.7489 17.0473Z" fill="white"/>
</svg>
