<svg width="1728" height="129" viewBox="0 0 1728 129" fill="none" xmlns="http://www.w3.org/2000/svg">
<path d="M1717.47 12.8857C1709.16 16.7044 1711.93 18.1369 1695.3 18.6157C1678.68 19.0945 1674.06 16.7044 1665.75 18.6157C1657.44 20.527 1651.9 20.527 1645.43 23.8668C1638.97 27.2106 1637.12 28.1643 1630.65 29.5968C1624.19 31.0293 1647.28 23.8668 1615.87 31.983C1584.47 40.103 1585.39 39.1454 1571.54 45.3541C1557.69 51.5629 1555.84 51.5629 1553.06 52.9954C1550.3 54.4278 1543.83 59.2041 1529.97 59.2041C1516.12 59.2041 1519.82 57.7716 1507.81 59.2041C1495.8 60.6366 1488.41 61.5903 1481.02 64.934C1473.63 68.2778 1455.16 62.0691 1448.69 62.0691C1442.22 62.0691 1431.15 62.5479 1431.15 62.5479C1431.15 62.5479 1428.38 61.1815 1420.99 65.9228C1413.6 70.664 1405.29 72.0965 1401.59 74.9614C1397.9 77.8264 1388.66 81.1702 1386.81 82.6027C1384.97 84.0352 1384.04 85.9464 1374.81 86.4213C1365.57 86.9001 1371.11 82.6027 1358.18 86.4213C1345.25 90.24 1336.01 90.7188 1330.47 93.5838C1325.49 96.1607 1320.51 97.5854 1316.2 99.5823C1312.51 99.3526 1310.32 99.921 1302.75 99.812C1293.72 99.6796 1292.82 100.232 1289.2 99.8548C1285.59 99.4772 1284.24 101.68 1276.11 103.125C1267.98 104.573 1266.63 104.281 1253.98 104.281C1241.33 104.281 1246.3 103.413 1238.62 101.677C1230.95 99.9404 1230.95 100.808 1221.91 99.9404C1212.88 99.0724 1195.27 104.861 1187.14 107.757C1179.01 110.653 1181.72 107.469 1174.04 107.757C1166.37 108.045 1166.37 108.337 1156.88 109.205C1147.4 110.073 1148.3 111.229 1137.01 113.257C1126.37 115.164 1112.96 120.268 1111.45 120.852C1105.7 119.065 1097.67 116.624 1090.21 114.526C1076.54 110.688 1085.49 112.237 1073.77 109.575C1062.05 106.908 1053.19 105.787 1045.11 104.176C1037.04 102.564 1024.16 98.2316 1015.08 95.8181C1006 93.4047 1006.92 93.7745 1006.92 93.7745C1006.92 93.7745 992.893 87.7799 986.235 84.3193C979.571 80.8588 980.503 81.2286 969.634 78.5037C958.765 75.7789 961.481 76.4601 950.255 76.6703C939.028 76.8805 935.502 76.5496 931.854 75.4986C928.207 74.4476 919.98 71.9719 910.901 69.5546C901.822 67.1412 895.901 67.9936 886.185 66.9349C876.469 65.8761 874.384 63.8363 867.163 62.1664C859.942 60.4926 852.426 57.0943 842.563 55.1713C832.699 53.2484 829.273 53.4897 824.215 54.2838C819.151 55.0779 824.215 54.2838 811.009 58.1258C797.804 61.9718 802.546 59.3092 792.198 59.5856C781.845 59.8658 770.019 61.6058 763.95 61.602C757.882 61.5942 732.755 71.6683 722.702 73.6925C721.691 73.8949 720.754 74.1012 719.828 74.3075C719.117 74.3659 718.323 74.4243 717.396 74.4865C706.091 75.2456 696.238 76.9934 687.669 75.1366C679.101 73.2798 679.095 73.2759 667.674 70.9676C656.253 68.6593 654.147 69.2159 646.989 67.328C639.831 65.4401 639.126 65.4518 634.847 64.755C630.568 64.0582 621.862 58.6669 618.226 56.1912C614.589 53.7116 613.883 53.7272 605.241 50.1382C596.604 46.5492 598.151 49.9786 593.209 50.399C588.267 50.8233 574.498 42.82 571.572 40.3249C568.64 37.8297 555.94 39.1298 552.419 39.7215C548.898 40.3093 546.834 41.8897 534.171 44.2136C521.507 46.5375 528.508 44.3382 523.555 44.4472C518.602 44.5561 504.56 47.9311 495.528 52.536C486.496 57.141 468.99 62.5206 455.68 66.3899C443.527 69.9244 438.258 68.1961 432.558 67.1957C430.421 66.3471 428.163 65.4128 425.026 64.7083C418.252 63.1863 412.831 59.2858 405.378 56.6817C397.925 54.0775 394.541 55.8136 387.767 55.8136C380.993 55.8136 380.315 57.1176 375.572 57.5497C370.83 57.9857 362.698 58.8538 355.924 59.2858C349.151 59.7218 349.151 60.1539 341.019 61.89C340.803 61.9367 340.592 61.9756 340.377 62.0224C334.429 60.115 328.355 58.4295 327.145 58.4567C325.024 58.5034 311.455 55.7319 296.423 51.6835C281.391 47.6352 281.412 48.2035 260.701 43.9022C239.99 39.6008 248.085 47.3978 233.258 48.7796C218.432 50.1654 222.069 52.5672 211.468 53.3068C210.047 53.408 208.8 53.4819 207.652 53.5442C201.968 51.2515 200.868 51.7186 193.331 50.6053C184.526 49.3013 183.168 45.397 173.683 40.6207C164.199 35.8444 169.62 38.0165 156.072 33.2403C142.525 28.464 149.298 30.6361 137.782 24.9918C126.266 19.3475 133.04 23.6878 126.266 20.2156C119.492 16.7433 114.071 20.6515 104.587 20.2156C95.1023 19.7796 94.4233 19.7796 84.2652 17.6114C74.1018 15.4393 74.7808 15.4393 64.6174 12.4031C54.4539 9.36292 58.5225 10.6669 50.3907 9.97406C42.2589 9.28117 34.1324 5.02264 26.6796 1.55042C19.2373 -1.93348 0 1.54264 0 1.54264V129H1728V7.1558C1728 7.1558 1725.79 9.06708 1717.48 12.8857H1717.47Z" fill="#043753"/>
</svg>
